# xmcd
#
# Track frame offsets:
#	150
#	24025
#	39993
#	59778
#	98107
#	120651
#	138978
#	172538
#	197793
#	216719
#	236936
#	260945
#	277391
#	298951
#	317990
#
# Disc length: 4629 seconds
#
# Revision: 2
# Processed by: cddbd v1.5.2PL0 Copyright (c) Steve Scherf et al.
# Submitted via: EZCDAudioConverter 1.3.4.1
#
DISCID=f612130f
DTITLE=V/A - Out Come The Freaks! 3/3
DYEAR=2009
DGENRE=
TTITLE0=Steinski And Mass Media - We'll Be Right Back
TTITLE1=Julian Cope - World Shut Your Mouth
TTITLE2=Tone-Loc - Wild Thing
TTITLE3=Act - Snobbery And Decay - Extended For Stephanie Beacham
TTITLE4=The Disposable Heroes Of Hiphoprisy - Television
TTITLE5=Pulp - Babies
TTITLE6=Bomb The Bass - Bug Powder Dust
TTITLE7=Tricky - Black Steel
TTITLE8=Purressense - I Suppose
TTITLE9=Deus - Little Arithmetics
TTITLE10=The Orb - Toxygene
TTITLE11=Earl Brutus - The SAS and The Glam That Goes With It
TTITLE12=Morrissey - Alma Matters
TTITLE13=Talvin Singh - OK
TTITLE14=Portishead - We Carry On
EXTD=
EXTT0=
EXTT1=
EXTT2=
EXTT3=
EXTT4=
EXTT5=
EXTT6=
EXTT7=
EXTT8=
EXTT9=
EXTT10=
EXTT11=
EXTT12=
EXTT13=
EXTT14=
PLAYORDER=
